<svg id="visual" viewBox="0 0 960 300" width="960" height="300" xmlns="http://www.w3.org/2000/svg" xmlns:xlink="http://www.w3.org/1999/xlink" version="1.1"><rect x="0" y="0" width="960" height="300" fill="#1d1649"></rect><path d="M0 192L137 176L274 215L411 200L549 223L686 223L823 217L960 207L960 301L823 301L686 301L549 301L411 301L274 301L137 301L0 301Z" fill="#5968b1"></path><path d="M0 218L137 206L274 229L411 212L549 216L686 225L823 212L960 215L960 301L823 301L686 301L549 301L411 301L274 301L137 301L0 301Z" fill="#4e57a4"></path><path d="M0 250L137 246L274 253L411 225L549 232L686 234L823 229L960 248L960 301L823 301L686 301L549 301L411 301L274 301L137 301L0 301Z" fill="#434796"></path><path d="M0 260L137 243L274 262L411 250L549 266L686 250L823 263L960 250L960 301L823 301L686 301L549 301L411 301L274 301L137 301L0 301Z" fill="#393688"></path><path d="M0 279L137 285L274 283L411 274L549 286L686 286L823 280L960 279L960 301L823 301L686 301L549 301L411 301L274 301L137 301L0 301Z" fill="#302579"></path></svg>