<svg id="visual" viewBox="0 0 900 150" width="900" height="150" xmlns="http://www.w3.org/2000/svg" xmlns:xlink="http://www.w3.org/1999/xlink" version="1.1"><rect x="0" y="0" width="900" height="150" fill="#130f30"></rect><path d="M0 64L100 34L200 36L300 58L400 60L500 33L600 29L700 34L800 24L900 58L900 151L800 151L700 151L600 151L500 151L400 151L300 151L200 151L100 151L0 151Z" fill="#5968b1"></path><path d="M0 48L100 65L200 51L300 78L400 52L500 48L600 44L700 80L800 61L900 59L900 151L800 151L700 151L600 151L500 151L400 151L300 151L200 151L100 151L0 151Z" fill="#4f589c"></path><path d="M0 82L100 89L200 76L300 73L400 88L500 65L600 92L700 70L800 89L900 82L900 151L800 151L700 151L600 151L500 151L400 151L300 151L200 151L100 151L0 151Z" fill="#444988"></path><path d="M0 104L100 80L200 72L300 102L400 94L500 98L600 92L700 94L800 75L900 96L900 151L800 151L700 151L600 151L500 151L400 151L300 151L200 151L100 151L0 151Z" fill="#393b74"></path><path d="M0 115L100 111L200 102L300 114L400 116L500 100L600 104L700 92L800 97L900 94L900 151L800 151L700 151L600 151L500 151L400 151L300 151L200 151L100 151L0 151Z" fill="#2e2d61"></path><path d="M0 110L100 105L200 116L300 122L400 106L500 118L600 123L700 126L800 126L900 108L900 151L800 151L700 151L600 151L500 151L400 151L300 151L200 151L100 151L0 151Z" fill="#23204f"></path><path d="M0 127L100 137L200 138L300 139L400 127L500 140L600 129L700 129L800 122L900 131L900 151L800 151L700 151L600 151L500 151L400 151L300 151L200 151L100 151L0 151Z" fill="#18133d"></path></svg>